<?xml version='1.0' encoding='iso-8859-1'?>
<svg version="1.1" xmlns="http://www.w3.org/2000/svg" viewBox="0 0 10.412 10.412" xmlns:xlink="http://www.w3.org/1999/xlink" enable-background="new 0 0 10.412 10.412">
  <g>
    <g>
      <path fill="#020400" d="m7.606,.572c-0.702,0-1.301,0.431-1.553,1.041l.472,.126c0.193-0.405 0.603-0.686 1.081-0.686 0.663,0 1.2,0.537 1.2,1.199 0,0.663-0.537,1.2-1.2,1.2-0.041,0-0.08-0.008-0.12-0.012l-.125,.467c0.081,0.012 0.161,0.025 0.245,0.025 0.928,0 1.68-0.753 1.68-1.681 0-0.927-0.752-1.679-1.68-1.679zm-1.382,9.345l-1.498-.409v-3.568l3.048-3.518c0.002-4.44089e-16 0.003-0.001 0.004-0.002l.035-.052c0.019-0.035 0.034-0.073 0.034-0.116 0-0.133-0.107-0.239-0.24-0.239h-4.1l-1.655-1.923-.006,.005c-0.044-0.057-0.109-0.095-0.186-0.095-0.132,0-0.24,0.107-0.24,0.239 0,0.07 0.031,0.132 0.078,0.176l1.375,1.598h-1.507c-0.132,0-0.24,0.106-0.24,0.239 0,0.073 0.034,0.137 0.085,0.181l3.035,3.507v3.567l-1.498,.41c-0.132,0.036-0.21,0.174-0.175,0.309 0.036,0.134 0.171,0.214 0.302,0.178l1.611-.44 1.611,.44c0.131,0.036 0.267-0.044 0.302-0.178 0.035-0.135-0.043-0.273-0.175-0.309zm.863-7.425l-1.576,1.848-1.591-1.848h3.167zm-5.202,0h1.402l1.909,2.218-.71,.832-2.601-3.05z"/>
    </g>
  </g>
</svg>
